HIERARCHY
ROOT hip
{
  OFFSET 0 0 0
  CHANNELS 6 Xposition Yposition Zposition Zrotation Yrotation Xrotation
  JOINT abdomen
  {
    OFFSET 0 20.6881 -0.73152
    CHANNELS 3 Zrotation Xrotation Yrotation
    JOINT chest
    {
      OFFSET 0 11.7043 -0.48768
      CHANNELS 3 Zrotation Xrotation Yrotation
      JOINT neck
      {
        OFFSET 0 22.1894 -2.19456
        CHANNELS 3 Zrotation Xrotation Yrotation
        JOINT head
        {
          OFFSET -0.24384 7.07133 1.2192
          CHANNELS 3 Zrotation Xrotation Yrotation
          JOINT leftEye
          {
            OFFSET 4.14528 8.04674 8.04672
            CHANNELS 3 Zrotation Xrotation Yrotation
            End Site
            {
              OFFSET 1 0 0
            }
          }
          JOINT rightEye
          {
            OFFSET -3.6576 8.04674 8.04672
            CHANNELS 3 Zrotation Xrotation Yrotation
            End Site
            {
              OFFSET 1 0 0
            }
          }
        }
      }
      JOINT rCollar
      {
        OFFSET -2.68224 19.2634 -4.8768
        CHANNELS 3 Zrotation Xrotation Yrotation
        JOINT rShldr
        {
          OFFSET -8.77824 -1.95073 1.46304
          CHANNELS 3 Zrotation Xrotation Yrotation
          JOINT rForeArm
          {
            OFFSET -28.1742 -1.7115 0.48768
            CHANNELS 3 Zrotation Xrotation Yrotation
            JOINT rHand
            {
              OFFSET -22.5879 0.773209 7.07136
              CHANNELS 3 Zrotation Xrotation Yrotation
              JOINT rThumb1
              {
                OFFSET -1.2192 -0.487915 3.41376
                CHANNELS 3 Zrotation Xrotation Yrotation
                JOINT rThumb2
                {
                  OFFSET -3.37035 -0.52449 3.41376
                  CHANNELS 3 Zrotation Xrotation Yrotation
                  End Site
                  {
                    OFFSET -1.78271 -1.18214 1.43049
                  }
                }
              }
              JOINT rIndex1
              {
                OFFSET -7.75947 0.938293 5.60832
                CHANNELS 3 Zrotation Xrotation Yrotation
                JOINT rIndex2
                {
                  OFFSET -2.54057 -0.884171 1.56538
                  CHANNELS 3 Zrotation Xrotation Yrotation
                  End Site
                  {
                    OFFSET -1.62519 -0.234802 1.16502
                  }
                }
              }
              JOINT rMid1
              {
                OFFSET -8.24714 1.18213 3.41376
                CHANNELS 3 Zrotation Xrotation Yrotation
                JOINT rMid2
                {
                  OFFSET -3.10165 -0.590103 1.0647
                  CHANNELS 3 Zrotation Xrotation Yrotation
                  End Site
                  {
                    OFFSET -2.48547 -0.328903 0.83742
                  }
                }
              }
              JOINT rRing1
              {
                OFFSET -8.82822 0.546677 1.51678
                CHANNELS 3 Zrotation Xrotation Yrotation
                JOINT rRing2
                {
                  OFFSET -2.60934 -0.819778 -0.0198488
                  CHANNELS 3 Zrotation Xrotation Yrotation
                  End Site
                  {
                    OFFSET -2.33842 -0.294052 0.168128
                  }
                }
              }
              JOINT rPinky1
              {
                OFFSET -8.27202 -0.0477905 -0.4584
                CHANNELS 3 Zrotation Xrotation Yrotation
                JOINT rPinky2
                {
                  OFFSET -1.82734 -0.647385 -0.700984
                  CHANNELS 3 Zrotation Xrotation Yrotation
                  End Site
                  {
                    OFFSET -1.69225 -0.51767 -0.607171
                  }
                }
              }
            }
          }
        }
      }
      JOINT lCollar
      {
        OFFSET 2.68224 19.2634 -4.8768
        CHANNELS 3 Zrotation Xrotation Yrotation
        JOINT lShldr
        {
          OFFSET 8.77824 -1.95073 1.46304
          CHANNELS 3 Zrotation Xrotation Yrotation
          JOINT lForeArm
          {
            OFFSET 28.1742 -1.7115 0.48768
            CHANNELS 3 Zrotation Xrotation Yrotation
            JOINT lHand
            {
              OFFSET 22.5879 0.773209 7.07136
              CHANNELS 3 Zrotation Xrotation Yrotation
              JOINT lThumb1
              {
                OFFSET 1.2192 -0.487915 3.41376
                CHANNELS 3 Zrotation Xrotation Yrotation
                JOINT lThumb2
                {
                  OFFSET 3.37035 -0.52449 3.41376
                  CHANNELS 3 Zrotation Xrotation Yrotation
                  End Site
                  {
                    OFFSET 1.78271 -1.18214 1.43049
                  }
                }
              }
              JOINT lIndex1
              {
                OFFSET 7.75947 0.938293 5.60832
                CHANNELS 3 Zrotation Xrotation Yrotation
                JOINT lIndex2
                {
                  OFFSET 2.54057 -0.884171 1.56538
                  CHANNELS 3 Zrotation Xrotation Yrotation
                  End Site
                  {
                    OFFSET 1.62519 -0.234802 1.16502
                  }
                }
              }
              JOINT lMid1
              {
                OFFSET 8.24714 1.18213 3.41376
                CHANNELS 3 Zrotation Xrotation Yrotation
                JOINT lMid2
                {
                  OFFSET 3.10165 -0.590103 1.0647
                  CHANNELS 3 Zrotation Xrotation Yrotation
                  End Site
                  {
                    OFFSET 2.48547 -0.328903 0.83742
                  }
                }
              }
              JOINT lRing1
              {
                OFFSET 8.82822 0.546677 1.51678
                CHANNELS 3 Zrotation Xrotation Yrotation
                JOINT lRing2
                {
                  OFFSET 2.60934 -0.819778 -0.0198488
                  CHANNELS 3 Zrotation Xrotation Yrotation
                  End Site
                  {
                    OFFSET 2.33842 -0.294052 0.168128
                  }
                }
              }
              JOINT lPinky1
              {
                OFFSET 8.27202 -0.0477905 -0.4584
                CHANNELS 3 Zrotation Xrotation Yrotation
                JOINT lPinky2
                {
                  OFFSET 1.82734 -0.647385 -0.700984
                  CHANNELS 3 Zrotation Xrotation Yrotation
                  End Site
                  {
                    OFFSET 1.69225 -0.51767 -0.607171
                  }
                }
              }
            }
          }
        }
      }
    }
  }
  JOINT rButtock
  {
    OFFSET -8.77824 4.35084 1.2192
    CHANNELS 3 Zrotation Xrotation Yrotation
    JOINT rThigh
    {
      OFFSET 0 -1.70687 -2.19456
      CHANNELS 3 Zrotation Xrotation Yrotation
      JOINT rShin
      {
        OFFSET 0 -36.8199 0.73152
        CHANNELS 3 Zrotation Xrotation Yrotation
        JOINT rFoot
        {
          OFFSET 0.73152 -45.1104 -5.12064
          CHANNELS 3 Zrotation Xrotation Yrotation
          End Site
          {
            OFFSET -1.1221 -3.69964 12.103
          }
        }
      }
    }
  }
  JOINT lButtock
  {
    OFFSET 8.77824 4.35084 1.2192
    CHANNELS 3 Zrotation Xrotation Yrotation
    JOINT lThigh
    {
      OFFSET 0 -1.70687 -2.19456
      CHANNELS 3 Zrotation Xrotation Yrotation
      JOINT lShin
      {
        OFFSET 0 -36.8199 0.73152
        CHANNELS 3 Zrotation Xrotation Yrotation
        JOINT lFoot
        {
          OFFSET -0.73152 -45.1104 -5.12064
          CHANNELS 3 Zrotation Xrotation Yrotation
          End Site
          {
            OFFSET 1.1221 -3.69964 12.103
          }
        }
      }
    }
  }
}
MOTION
Frames:	6
Frame Time:	0.03333
0.0 0.0 0.0 0.0 0.0 0.0 0.0 0.0 0.0 0.0 0.0 0.0 0.0 0.0 0.0 0.0 0.0 0.0 0.0 0.0 0.0 0.0 0.0 0.0 0.0 0.0 0.0 0.0 0.0 0.0 0.0 0.0 0.0 0.0 0.0 0.0 0.0 0.0 0.0 0.0 0.0 0.0 0.0 0.0 0.0 0.0 0.0 0.0 0.0 0.0 0.0 0.0 0.0 0.0 0.0 0.0 0.0 0.0 0.0 0.0 0.0 0.0 0.0 0.0 0.0 0.0 0.0 0.0 0.0 0.0 0.0 0.0 0.0 0.0 0.0 0.0 0.0 0.0 0.0 0.0 0.0 0.0 0.0 0.0 0.0 0.0 0.0 0.0 0.0 0.0 0.0 0.0 0.0 0.0 0.0 0.0 0.0 0.0 0.0 0.0 0.0 0.0 0.0 0.0 0.0 0.0 0.0 0.0 0.0 0.0 0.0 0.0 0.0 0.0 0.0 0.0 0.0 0.0 0.0 0.0 0.0 0.0 0.0 0.0 0.0 0.0 0.0 0.0 0.0 0.0 0.0 0.0
-1.2398 59.124900000000004 1.3085 -165.894347 -49.817961 173.96917 2.253373 0.70777 -141.904026 3.227152 4.367443 140.449512 -4.993289 2.520166 -57.771916 8.082947 4.445683 59.340187 0.001403 -0.0 -0.005506 -0.004394 0.0 -0.000861 -59.837345 -86.72077 -81.637793 12.883615 -0.746216 -10.041717 -149.878042 58.282138 -95.973901 -3.836441 16.21754 0.564673 -5.023068 4.875703 0.97997 6.960229 -7.544263 -2.029128 -153.454411 -21.067516 121.744228 4.76077 13.462721 -7.284143 -89.835271 60.701631 81.262711 3.355987 0.21823 0.197488 -145.122003 2.056439 -179.773169 -148.289189 -43.020833 -170.612223 -144.858838 11.078885 -141.544759 1.358488 -2.381554 -2.748475 0.273214 1.606775 -0.361202 -19.194761 19.340464 -25.89731 177.993182 -21.07605 -31.379229 -168.316663 -22.155756 -143.022739 0.491527 0.484694 -0.077585 6.049215 6.930236 -5.417104 -37.217849 -57.917131 0.641281 139.315145 12.957725 -110.014191 -68.980105 -80.155362 -40.574545 -172.834182 -58.896068 -136.833091 81.517466 -71.915824 98.959265 150.990648 0.223923 -176.547666 124.850511 -29.038539 122.621809 161.189525 55.949593 147.269873 -0.001522 -0.000198 -0.00038 -13.633536 -36.886624 0.0 72.583455 61.1887 179.198511 56.436146 52.414475 59.380738 -0.002892 -0.000198 -0.001446 -56.559284 -41.380491 -45.942643 40.952263 79.843896 -76.927166 -93.323304 -67.097483 -12.431635
-2.0746 58.645199999999996 2.1292 -165.670777 -50.835147 174.103526 0.073577 0.10288 144.42852 -5.495227 2.809202 -145.978279 13.981449 2.040408 71.308236 -8.505747 8.317101 -64.719575 -0.000687 0.0 -0.001851 -0.000687 0.0 -0.001851 -48.783978 -86.435252 -70.446732 -80.590135 -75.354736 -96.940942 27.560486 11.289553 -152.650637 175.739391 2.557027 146.009737 -0.44127 0.435433 0.069183 -112.498609 0.182673 102.164836 -140.624258 1.601832 116.147846 106.896063 -70.606159 54.492061 -160.674534 -6.667647 143.24506 -85.025128 63.900624 76.911419 -145.12268 1.973562 -179.74864 -150.8268 -33.723639 -173.393325 32.017615 83.320412 6.229316 51.025575 83.063231 -14.678546 159.219416 -48.028387 -170.416064 -11.419071 14.994719 13.770627 12.739131 -9.286523 151.993865 -159.127147 -42.151394 -137.084188 166.631773 -4.304854 -89.770654 177.266901 -14.568572 -90.374278 0.327626 0.529976 -0.185657 152.103634 -0.026588 -109.287806 0.057617 0.167836 -0.032577 155.968365 15.61799 -139.903994 145.100691 -1.523367 178.650352 155.411941 1.341038 179.397239 153.516754 42.536902 148.492784 5.487818 -15.761181 7.865794 -0.001341 1.1e-05 -0.001341 -16.317688 -36.946105 -0.0 70.652736 59.03536 -155.365654 -179.61249 -4.252472 -56.047905 -179.996816 75.749631 -0.002179 140.416802 14.394582 94.536491 92.869565 -4.751118 69.933621 41.501539 54.314848 -169.710632
-3.1123000000000003 58.121199999999995 3.0966 -165.770882 -52.090713 174.186838 -0.74184 1.720543 95.355841 -7.961424 -3.06106 -97.161981 14.980532 3.186258 71.961555 -10.481449 8.28096 -60.738067 0.004854 0.0 0.001953 -0.00111 0.0 -0.002648 -142.973668 39.431494 147.389746 66.640677 -70.228051 71.963323 -82.577766 -41.610684 56.108453 16.746323 -40.452825 8.060381 -5.762315 5.575816 1.158045 -137.450192 -40.766073 115.591451 -140.762121 1.380527 116.22959 -172.475332 -32.788776 117.568198 89.034015 -81.394824 59.758099 -3.275883 16.84226 3.380178 0.000989 0.02251 0.007821 -154.394024 11.217964 170.334998 -26.563915 -38.86202 -25.603405 15.563038 41.649721 8.041281 155.09738 -0.940696 -161.283308 -176.340955 44.92106 176.874001 147.711584 -79.490666 -57.738188 -169.355769 -25.538811 -142.33575 -71.831226 -48.264001 -25.7913 140.68375 8.611604 -109.355209 145.337342 -6.264139 -118.679097 135.086624 32.369365 -107.987977 10.974752 25.790161 -7.639607 -3.254227 0.207576 -0.021862 0.021421 -1.726095 0.542161 155.553821 -55.671354 -179.253725 -5.226703 15.423992 -4.712269 24.535053 -41.2904 24.937508 -0.0 -0.000844 -0.000376 -18.551347 -36.756594 -29.283707 11.71214 80.49749 -90.51819 -68.007395 -75.228643 9.015686 -0.0 -0.000844 -0.000376 -54.200752 -42.379199 -43.91561 54.076132 85.606114 -151.018053 -177.998026 47.764574 -101.283091
-4.4137 57.9682 4.2326999999999995 -166.410019 -53.24019 174.305509 1.279168 4.73258 -0.0 1.190912 -10.622677 -0.683463 15.657108 3.717276 70.028044 -11.85002 7.156184 -54.149417 0.004296 0.0 0.002027 -0.001805 -0.0 0.000435 -82.877626 68.299775 86.000592 -96.905295 54.907721 104.165383 174.710327 -25.692842 -70.020969 -12.791612 36.406443 2.925784 -103.199496 36.331625 60.111702 25.758367 -33.053907 24.655177 -148.885824 -12.609965 120.244572 31.377841 -39.477096 -7.740223 -36.036356 51.722927 29.832653 -163.094201 -4.756343 143.256112 -4.3e-05 0.063905 0.019641 -55.600573 -86.722789 -77.110756 -80.937862 -51.226936 -79.360206 -24.11983 -40.936949 -26.128401 82.877022 68.301073 -86.00069 17.82547 22.008513 -26.361942 158.102027 -75.223017 46.513876 6.491432 3.928185 1.779642 -51.059639 -41.204495 -12.855641 144.828948 -14.258985 -122.354086 -88.792023 -75.499367 -40.050338 169.562985 -36.026004 -112.894769 86.295127 60.960925 -77.857359 42.128529 58.43821 -36.394959 72.757231 -72.142515 89.772588 148.570575 44.321502 -169.511618 140.387704 -1.530545 137.473939 123.974849 -32.35113 121.957204 -0.000673 -0.000935 -0.0 -22.749888 -37.638625 145.523944 7.184995 -86.481056 80.598203 164.563889 -66.798789 -114.366975 179.990483 75.748858 0.006511 142.480718 11.56158 -81.965822 -93.331524 1.641089 -7.892133 58.853851 -54.289887 137.287716
-5.911099999999999 57.9438 5.479 -166.898562 -54.164273 173.992392 3.588783 2.354162 -108.916696 8.02942 1.018822 109.286201 9.184018 -0.007133 19.799351 -4.878401 -4.261056 0.064187 0.001339 0.0 0.001977 0.000995 0.0 0.000521 -153.589783 -75.693336 -178.259737 -171.21728 15.039964 -171.490222 -10.716686 -41.363625 107.67531 -3.828921 12.594398 0.046656 -171.604124 -9.285811 89.950838 177.161615 -18.822014 95.260538 -152.106707 -18.556165 121.367716 -85.753272 56.813147 67.577542 -12.841678 28.99731 9.149877 13.254563 -30.029774 -1.387508 -0.001379 -0.018335 -0.007087 -156.171894 -15.219064 173.651054 -124.851023 -29.040264 -122.623874 -20.480837 -37.084813 -22.676098 155.417137 -2.951823 -161.717416 -176.823707 38.107856 178.133294 0.808562 44.682943 -117.960871 8.551942 -7.802688 3.648488 -5.435502 -5.421639 0.581164 -9.313872 -17.192471 11.532588 27.42339 30.638276 -20.099481 -103.910561 -62.762199 -52.673803 170.282063 -36.723193 -145.340201 -7.456967 -13.048914 0.901656 31.70861 -66.109025 46.283168 72.819608 82.054633 -90.453864 124.849261 -29.037545 122.620934 147.451657 13.79278 142.52732 -179.999287 75.74822 -0.000736 157.142512 36.129191 -55.75991 -77.888578 51.66039 -174.623821 143.182662 55.605814 123.689956 0.000595 -0.000287 0.000298 -62.220062 -43.522048 -53.536689 -173.676502 82.39603 84.735643 94.82965 71.338894 -7.896505
